<mxfile host="Electron" modified="2024-01-17T09:18:20.958Z" agent="Mozilla/5.0 (Windows NT 10.0; Win64; x64) AppleWebKit/537.36 (KHTML, like Gecko) draw.io/22.1.2 Chrome/114.0.5735.289 Electron/25.9.4 Safari/537.36" etag="sLOH4f_INEOfrd8Qb8V4" version="22.1.2" type="device">
  <diagram name="第 1 页" id="uOT8BLlDiwfZYI-wD02R">
    <mxGraphModel dx="1838" dy="1482" grid="1" gridSize="10" guides="1" tooltips="1" connect="1" arrows="1" fold="1" page="1" pageScale="1" pageWidth="491" pageHeight="413" math="0" shadow="0">
      <root>
        <mxCell id="0" />
        <mxCell id="1" parent="0" />
        <mxCell id="tWNSDuBQgDKEG3OZ49LE-2" style="edgeStyle=orthogonalEdgeStyle;rounded=0;orthogonalLoop=1;jettySize=auto;html=1;exitX=0;exitY=0.25;exitDx=0;exitDy=0;entryX=1;entryY=0.5;entryDx=0;entryDy=0;" edge="1" parent="1" source="tWNSDuBQgDKEG3OZ49LE-4">
          <mxGeometry relative="1" as="geometry">
            <mxPoint x="350" y="32" as="targetPoint" />
          </mxGeometry>
        </mxCell>
        <mxCell id="tWNSDuBQgDKEG3OZ49LE-3" style="edgeStyle=orthogonalEdgeStyle;rounded=0;orthogonalLoop=1;jettySize=auto;html=1;exitX=1;exitY=0.75;exitDx=0;exitDy=0;entryX=0;entryY=0.75;entryDx=0;entryDy=0;" edge="1" parent="1" source="tWNSDuBQgDKEG3OZ49LE-4" target="tWNSDuBQgDKEG3OZ49LE-7">
          <mxGeometry relative="1" as="geometry" />
        </mxCell>
        <mxCell id="tWNSDuBQgDKEG3OZ49LE-4" value="A" style="rounded=0;whiteSpace=wrap;html=1;fillColor=#d5e8d4;strokeColor=#82b366;fontSize=18;fontStyle=1" vertex="1" parent="1">
          <mxGeometry x="390" y="20" width="50" height="50" as="geometry" />
        </mxCell>
        <mxCell id="tWNSDuBQgDKEG3OZ49LE-5" style="edgeStyle=orthogonalEdgeStyle;rounded=0;orthogonalLoop=1;jettySize=auto;html=1;exitX=0;exitY=0.25;exitDx=0;exitDy=0;entryX=1;entryY=0.25;entryDx=0;entryDy=0;" edge="1" parent="1" source="tWNSDuBQgDKEG3OZ49LE-7" target="tWNSDuBQgDKEG3OZ49LE-4">
          <mxGeometry relative="1" as="geometry" />
        </mxCell>
        <mxCell id="tWNSDuBQgDKEG3OZ49LE-17" style="edgeStyle=orthogonalEdgeStyle;rounded=0;orthogonalLoop=1;jettySize=auto;html=1;exitX=1;exitY=0.75;exitDx=0;exitDy=0;entryX=0;entryY=0.75;entryDx=0;entryDy=0;" edge="1" parent="1" source="tWNSDuBQgDKEG3OZ49LE-7" target="tWNSDuBQgDKEG3OZ49LE-14">
          <mxGeometry relative="1" as="geometry" />
        </mxCell>
        <mxCell id="tWNSDuBQgDKEG3OZ49LE-7" value="B" style="rounded=0;whiteSpace=wrap;html=1;fillColor=#f8cecc;strokeColor=#b85450;fontStyle=1;fontSize=18;" vertex="1" parent="1">
          <mxGeometry x="480" y="20" width="50" height="50" as="geometry" />
        </mxCell>
        <mxCell id="tWNSDuBQgDKEG3OZ49LE-8" style="edgeStyle=orthogonalEdgeStyle;rounded=0;orthogonalLoop=1;jettySize=auto;html=1;exitX=0.5;exitY=0;exitDx=0;exitDy=0;entryX=0.5;entryY=1;entryDx=0;entryDy=0;" edge="1" parent="1" source="tWNSDuBQgDKEG3OZ49LE-9" target="tWNSDuBQgDKEG3OZ49LE-4">
          <mxGeometry relative="1" as="geometry" />
        </mxCell>
        <mxCell id="tWNSDuBQgDKEG3OZ49LE-9" value="&lt;b&gt;first&lt;/b&gt;" style="text;html=1;strokeColor=none;fillColor=none;align=center;verticalAlign=middle;whiteSpace=wrap;rounded=0;fontSize=21;" vertex="1" parent="1">
          <mxGeometry x="395" y="100" width="40" height="20" as="geometry" />
        </mxCell>
        <mxCell id="tWNSDuBQgDKEG3OZ49LE-18" style="edgeStyle=orthogonalEdgeStyle;rounded=0;orthogonalLoop=1;jettySize=auto;html=1;exitX=0.5;exitY=0;exitDx=0;exitDy=0;entryX=0.5;entryY=1;entryDx=0;entryDy=0;" edge="1" parent="1" source="tWNSDuBQgDKEG3OZ49LE-11" target="tWNSDuBQgDKEG3OZ49LE-14">
          <mxGeometry relative="1" as="geometry" />
        </mxCell>
        <mxCell id="tWNSDuBQgDKEG3OZ49LE-11" value="&lt;b&gt;last&lt;/b&gt;" style="text;html=1;strokeColor=none;fillColor=none;align=center;verticalAlign=middle;whiteSpace=wrap;rounded=0;fontSize=21;" vertex="1" parent="1">
          <mxGeometry x="575" y="100" width="40" height="20" as="geometry" />
        </mxCell>
        <mxCell id="tWNSDuBQgDKEG3OZ49LE-12" value="null" style="rounded=0;whiteSpace=wrap;html=1;fillColor=#f5f5f5;strokeColor=#666666;fontSize=18;fontStyle=1;dashed=1;fontColor=#333333;" vertex="1" parent="1">
          <mxGeometry x="300" y="20" width="50" height="50" as="geometry" />
        </mxCell>
        <mxCell id="tWNSDuBQgDKEG3OZ49LE-13" value="null" style="rounded=0;whiteSpace=wrap;html=1;fillColor=#f5f5f5;strokeColor=#666666;fontSize=18;fontStyle=1;dashed=1;fontColor=#333333;" vertex="1" parent="1">
          <mxGeometry x="660" y="20" width="50" height="50" as="geometry" />
        </mxCell>
        <mxCell id="tWNSDuBQgDKEG3OZ49LE-16" style="edgeStyle=orthogonalEdgeStyle;rounded=0;orthogonalLoop=1;jettySize=auto;html=1;exitX=0;exitY=0.25;exitDx=0;exitDy=0;entryX=1;entryY=0.25;entryDx=0;entryDy=0;" edge="1" parent="1" source="tWNSDuBQgDKEG3OZ49LE-14" target="tWNSDuBQgDKEG3OZ49LE-7">
          <mxGeometry relative="1" as="geometry" />
        </mxCell>
        <mxCell id="tWNSDuBQgDKEG3OZ49LE-19" style="edgeStyle=orthogonalEdgeStyle;rounded=0;orthogonalLoop=1;jettySize=auto;html=1;exitX=1;exitY=0.75;exitDx=0;exitDy=0;entryX=0;entryY=0.75;entryDx=0;entryDy=0;" edge="1" parent="1" source="tWNSDuBQgDKEG3OZ49LE-14" target="tWNSDuBQgDKEG3OZ49LE-13">
          <mxGeometry relative="1" as="geometry" />
        </mxCell>
        <mxCell id="tWNSDuBQgDKEG3OZ49LE-14" value="C" style="rounded=0;whiteSpace=wrap;html=1;fillColor=#d5e8d4;strokeColor=#82b366;fontStyle=1;fontSize=18;" vertex="1" parent="1">
          <mxGeometry x="570" y="20" width="50" height="50" as="geometry" />
        </mxCell>
        <mxCell id="tWNSDuBQgDKEG3OZ49LE-20" style="edgeStyle=orthogonalEdgeStyle;rounded=0;orthogonalLoop=1;jettySize=auto;html=1;exitX=0;exitY=0.25;exitDx=0;exitDy=0;entryX=1;entryY=0.5;entryDx=0;entryDy=0;" edge="1" parent="1" source="tWNSDuBQgDKEG3OZ49LE-22">
          <mxGeometry relative="1" as="geometry">
            <mxPoint x="350" y="162" as="targetPoint" />
          </mxGeometry>
        </mxCell>
        <mxCell id="tWNSDuBQgDKEG3OZ49LE-22" value="A" style="rounded=0;whiteSpace=wrap;html=1;fillColor=#d5e8d4;strokeColor=#82b366;fontSize=18;fontStyle=1" vertex="1" parent="1">
          <mxGeometry x="390" y="150" width="50" height="50" as="geometry" />
        </mxCell>
        <mxCell id="tWNSDuBQgDKEG3OZ49LE-112" style="edgeStyle=orthogonalEdgeStyle;rounded=0;orthogonalLoop=1;jettySize=auto;html=1;exitX=0;exitY=0.25;exitDx=0;exitDy=0;entryX=1;entryY=0.25;entryDx=0;entryDy=0;" edge="1" parent="1" source="tWNSDuBQgDKEG3OZ49LE-25" target="tWNSDuBQgDKEG3OZ49LE-22">
          <mxGeometry relative="1" as="geometry" />
        </mxCell>
        <mxCell id="tWNSDuBQgDKEG3OZ49LE-25" value="B" style="rounded=0;whiteSpace=wrap;html=1;fillColor=#f8cecc;strokeColor=#b85450;fontStyle=1;fontSize=18;" vertex="1" parent="1">
          <mxGeometry x="480" y="150" width="50" height="50" as="geometry" />
        </mxCell>
        <mxCell id="tWNSDuBQgDKEG3OZ49LE-26" style="edgeStyle=orthogonalEdgeStyle;rounded=0;orthogonalLoop=1;jettySize=auto;html=1;exitX=0.5;exitY=0;exitDx=0;exitDy=0;entryX=0.5;entryY=1;entryDx=0;entryDy=0;" edge="1" parent="1" source="tWNSDuBQgDKEG3OZ49LE-27" target="tWNSDuBQgDKEG3OZ49LE-22">
          <mxGeometry relative="1" as="geometry" />
        </mxCell>
        <mxCell id="tWNSDuBQgDKEG3OZ49LE-27" value="&lt;b&gt;first&lt;/b&gt;" style="text;html=1;strokeColor=none;fillColor=none;align=center;verticalAlign=middle;whiteSpace=wrap;rounded=0;fontSize=21;" vertex="1" parent="1">
          <mxGeometry x="395" y="230" width="40" height="20" as="geometry" />
        </mxCell>
        <mxCell id="tWNSDuBQgDKEG3OZ49LE-28" style="edgeStyle=orthogonalEdgeStyle;rounded=0;orthogonalLoop=1;jettySize=auto;html=1;exitX=0.5;exitY=0;exitDx=0;exitDy=0;entryX=0.5;entryY=1;entryDx=0;entryDy=0;" edge="1" parent="1" source="tWNSDuBQgDKEG3OZ49LE-29" target="tWNSDuBQgDKEG3OZ49LE-34">
          <mxGeometry relative="1" as="geometry" />
        </mxCell>
        <mxCell id="tWNSDuBQgDKEG3OZ49LE-29" value="&lt;b&gt;last&lt;/b&gt;" style="text;html=1;strokeColor=none;fillColor=none;align=center;verticalAlign=middle;whiteSpace=wrap;rounded=0;fontSize=21;" vertex="1" parent="1">
          <mxGeometry x="575" y="230" width="40" height="20" as="geometry" />
        </mxCell>
        <mxCell id="tWNSDuBQgDKEG3OZ49LE-30" value="null" style="rounded=0;whiteSpace=wrap;html=1;fillColor=#f5f5f5;strokeColor=#666666;fontSize=18;fontStyle=1;dashed=1;fontColor=#333333;" vertex="1" parent="1">
          <mxGeometry x="300" y="150" width="50" height="50" as="geometry" />
        </mxCell>
        <mxCell id="tWNSDuBQgDKEG3OZ49LE-31" value="null" style="rounded=0;whiteSpace=wrap;html=1;fillColor=#f5f5f5;strokeColor=#666666;fontSize=18;fontStyle=1;dashed=1;fontColor=#333333;" vertex="1" parent="1">
          <mxGeometry x="660" y="150" width="50" height="50" as="geometry" />
        </mxCell>
        <mxCell id="tWNSDuBQgDKEG3OZ49LE-33" style="edgeStyle=orthogonalEdgeStyle;rounded=0;orthogonalLoop=1;jettySize=auto;html=1;exitX=1;exitY=0.75;exitDx=0;exitDy=0;entryX=0;entryY=0.75;entryDx=0;entryDy=0;" edge="1" parent="1" source="tWNSDuBQgDKEG3OZ49LE-34" target="tWNSDuBQgDKEG3OZ49LE-31">
          <mxGeometry relative="1" as="geometry" />
        </mxCell>
        <mxCell id="tWNSDuBQgDKEG3OZ49LE-111" style="edgeStyle=orthogonalEdgeStyle;rounded=0;orthogonalLoop=1;jettySize=auto;html=1;exitX=0;exitY=0.25;exitDx=0;exitDy=0;entryX=1;entryY=0.25;entryDx=0;entryDy=0;" edge="1" parent="1" source="tWNSDuBQgDKEG3OZ49LE-34" target="tWNSDuBQgDKEG3OZ49LE-25">
          <mxGeometry relative="1" as="geometry" />
        </mxCell>
        <mxCell id="tWNSDuBQgDKEG3OZ49LE-34" value="C" style="rounded=0;whiteSpace=wrap;html=1;fillColor=#d5e8d4;strokeColor=#82b366;fontStyle=1;fontSize=18;" vertex="1" parent="1">
          <mxGeometry x="570" y="150" width="50" height="50" as="geometry" />
        </mxCell>
        <mxCell id="tWNSDuBQgDKEG3OZ49LE-36" style="edgeStyle=orthogonalEdgeStyle;rounded=0;orthogonalLoop=1;jettySize=auto;html=1;exitX=1;exitY=0.75;exitDx=0;exitDy=0;entryX=0;entryY=0.75;entryDx=0;entryDy=0;curved=1;" edge="1" parent="1" source="tWNSDuBQgDKEG3OZ49LE-22" target="tWNSDuBQgDKEG3OZ49LE-34">
          <mxGeometry relative="1" as="geometry">
            <Array as="points">
              <mxPoint x="440" y="220" />
              <mxPoint x="570" y="220" />
            </Array>
          </mxGeometry>
        </mxCell>
        <mxCell id="tWNSDuBQgDKEG3OZ49LE-37" style="edgeStyle=orthogonalEdgeStyle;rounded=0;orthogonalLoop=1;jettySize=auto;html=1;exitX=0;exitY=0.25;exitDx=0;exitDy=0;entryX=1;entryY=0.5;entryDx=0;entryDy=0;" edge="1" parent="1" source="tWNSDuBQgDKEG3OZ49LE-39">
          <mxGeometry relative="1" as="geometry">
            <mxPoint x="350" y="422" as="targetPoint" />
          </mxGeometry>
        </mxCell>
        <mxCell id="tWNSDuBQgDKEG3OZ49LE-54" style="edgeStyle=orthogonalEdgeStyle;rounded=0;orthogonalLoop=1;jettySize=auto;html=1;exitX=1;exitY=0.75;exitDx=0;exitDy=0;entryX=0;entryY=0.75;entryDx=0;entryDy=0;" edge="1" parent="1" source="tWNSDuBQgDKEG3OZ49LE-39" target="tWNSDuBQgDKEG3OZ49LE-51">
          <mxGeometry relative="1" as="geometry" />
        </mxCell>
        <mxCell id="tWNSDuBQgDKEG3OZ49LE-39" value="A" style="rounded=0;whiteSpace=wrap;html=1;fillColor=#d5e8d4;strokeColor=#82b366;fontSize=18;fontStyle=1" vertex="1" parent="1">
          <mxGeometry x="390" y="410" width="50" height="50" as="geometry" />
        </mxCell>
        <mxCell id="tWNSDuBQgDKEG3OZ49LE-43" style="edgeStyle=orthogonalEdgeStyle;rounded=0;orthogonalLoop=1;jettySize=auto;html=1;exitX=0.5;exitY=0;exitDx=0;exitDy=0;entryX=0.5;entryY=1;entryDx=0;entryDy=0;" edge="1" parent="1" source="tWNSDuBQgDKEG3OZ49LE-44" target="tWNSDuBQgDKEG3OZ49LE-39">
          <mxGeometry relative="1" as="geometry" />
        </mxCell>
        <mxCell id="tWNSDuBQgDKEG3OZ49LE-44" value="&lt;b&gt;first&lt;/b&gt;" style="text;html=1;strokeColor=none;fillColor=none;align=center;verticalAlign=middle;whiteSpace=wrap;rounded=0;fontSize=21;" vertex="1" parent="1">
          <mxGeometry x="395" y="490" width="40" height="20" as="geometry" />
        </mxCell>
        <mxCell id="tWNSDuBQgDKEG3OZ49LE-45" style="edgeStyle=orthogonalEdgeStyle;rounded=0;orthogonalLoop=1;jettySize=auto;html=1;exitX=0.5;exitY=0;exitDx=0;exitDy=0;entryX=0.5;entryY=1;entryDx=0;entryDy=0;" edge="1" parent="1" source="tWNSDuBQgDKEG3OZ49LE-46" target="tWNSDuBQgDKEG3OZ49LE-51">
          <mxGeometry relative="1" as="geometry" />
        </mxCell>
        <mxCell id="tWNSDuBQgDKEG3OZ49LE-46" value="&lt;b&gt;last&lt;/b&gt;" style="text;html=1;strokeColor=none;fillColor=none;align=center;verticalAlign=middle;whiteSpace=wrap;rounded=0;fontSize=21;" vertex="1" parent="1">
          <mxGeometry x="575" y="490" width="40" height="20" as="geometry" />
        </mxCell>
        <mxCell id="tWNSDuBQgDKEG3OZ49LE-47" value="null" style="rounded=0;whiteSpace=wrap;html=1;fillColor=#f5f5f5;strokeColor=#666666;fontSize=18;fontStyle=1;dashed=1;fontColor=#333333;" vertex="1" parent="1">
          <mxGeometry x="300" y="410" width="50" height="50" as="geometry" />
        </mxCell>
        <mxCell id="tWNSDuBQgDKEG3OZ49LE-48" value="null" style="rounded=0;whiteSpace=wrap;html=1;fillColor=#f5f5f5;strokeColor=#666666;fontSize=18;fontStyle=1;dashed=1;fontColor=#333333;" vertex="1" parent="1">
          <mxGeometry x="660" y="410" width="50" height="50" as="geometry" />
        </mxCell>
        <mxCell id="tWNSDuBQgDKEG3OZ49LE-50" style="edgeStyle=orthogonalEdgeStyle;rounded=0;orthogonalLoop=1;jettySize=auto;html=1;exitX=1;exitY=0.75;exitDx=0;exitDy=0;entryX=0;entryY=0.75;entryDx=0;entryDy=0;" edge="1" parent="1" source="tWNSDuBQgDKEG3OZ49LE-51" target="tWNSDuBQgDKEG3OZ49LE-48">
          <mxGeometry relative="1" as="geometry" />
        </mxCell>
        <mxCell id="tWNSDuBQgDKEG3OZ49LE-53" style="edgeStyle=orthogonalEdgeStyle;rounded=0;orthogonalLoop=1;jettySize=auto;html=1;exitX=0;exitY=0.25;exitDx=0;exitDy=0;entryX=1;entryY=0.25;entryDx=0;entryDy=0;" edge="1" parent="1" source="tWNSDuBQgDKEG3OZ49LE-51" target="tWNSDuBQgDKEG3OZ49LE-39">
          <mxGeometry relative="1" as="geometry" />
        </mxCell>
        <mxCell id="tWNSDuBQgDKEG3OZ49LE-51" value="C" style="rounded=0;whiteSpace=wrap;html=1;fillColor=#d5e8d4;strokeColor=#82b366;fontStyle=1;fontSize=18;" vertex="1" parent="1">
          <mxGeometry x="570" y="410" width="50" height="50" as="geometry" />
        </mxCell>
        <mxCell id="tWNSDuBQgDKEG3OZ49LE-55" style="edgeStyle=orthogonalEdgeStyle;rounded=0;orthogonalLoop=1;jettySize=auto;html=1;exitX=0;exitY=0.25;exitDx=0;exitDy=0;entryX=1;entryY=0.5;entryDx=0;entryDy=0;" edge="1" parent="1" source="tWNSDuBQgDKEG3OZ49LE-57">
          <mxGeometry relative="1" as="geometry">
            <mxPoint x="860" y="32" as="targetPoint" />
          </mxGeometry>
        </mxCell>
        <mxCell id="tWNSDuBQgDKEG3OZ49LE-56" style="edgeStyle=orthogonalEdgeStyle;rounded=0;orthogonalLoop=1;jettySize=auto;html=1;exitX=1;exitY=0.75;exitDx=0;exitDy=0;entryX=0;entryY=0.75;entryDx=0;entryDy=0;" edge="1" parent="1" source="tWNSDuBQgDKEG3OZ49LE-57" target="tWNSDuBQgDKEG3OZ49LE-60">
          <mxGeometry relative="1" as="geometry" />
        </mxCell>
        <mxCell id="tWNSDuBQgDKEG3OZ49LE-57" value="A" style="rounded=0;whiteSpace=wrap;html=1;fillColor=#f8cecc;strokeColor=#b85450;fontSize=18;fontStyle=1" vertex="1" parent="1">
          <mxGeometry x="900" y="20" width="50" height="50" as="geometry" />
        </mxCell>
        <mxCell id="tWNSDuBQgDKEG3OZ49LE-58" style="edgeStyle=orthogonalEdgeStyle;rounded=0;orthogonalLoop=1;jettySize=auto;html=1;exitX=0;exitY=0.25;exitDx=0;exitDy=0;entryX=1;entryY=0.25;entryDx=0;entryDy=0;" edge="1" parent="1" source="tWNSDuBQgDKEG3OZ49LE-60" target="tWNSDuBQgDKEG3OZ49LE-57">
          <mxGeometry relative="1" as="geometry" />
        </mxCell>
        <mxCell id="tWNSDuBQgDKEG3OZ49LE-59" style="edgeStyle=orthogonalEdgeStyle;rounded=0;orthogonalLoop=1;jettySize=auto;html=1;exitX=1;exitY=0.75;exitDx=0;exitDy=0;entryX=0;entryY=0.75;entryDx=0;entryDy=0;" edge="1" parent="1" source="tWNSDuBQgDKEG3OZ49LE-60" target="tWNSDuBQgDKEG3OZ49LE-69">
          <mxGeometry relative="1" as="geometry" />
        </mxCell>
        <mxCell id="tWNSDuBQgDKEG3OZ49LE-60" value="B" style="rounded=0;whiteSpace=wrap;html=1;fillColor=#d5e8d4;strokeColor=#82b366;fontStyle=1;fontSize=18;" vertex="1" parent="1">
          <mxGeometry x="990" y="20" width="50" height="50" as="geometry" />
        </mxCell>
        <mxCell id="tWNSDuBQgDKEG3OZ49LE-61" style="edgeStyle=orthogonalEdgeStyle;rounded=0;orthogonalLoop=1;jettySize=auto;html=1;exitX=0.5;exitY=0;exitDx=0;exitDy=0;entryX=0.5;entryY=1;entryDx=0;entryDy=0;" edge="1" parent="1" source="tWNSDuBQgDKEG3OZ49LE-62" target="tWNSDuBQgDKEG3OZ49LE-57">
          <mxGeometry relative="1" as="geometry" />
        </mxCell>
        <mxCell id="tWNSDuBQgDKEG3OZ49LE-62" value="&lt;b&gt;first&lt;/b&gt;" style="text;html=1;strokeColor=none;fillColor=none;align=center;verticalAlign=middle;whiteSpace=wrap;rounded=0;fontSize=21;" vertex="1" parent="1">
          <mxGeometry x="905" y="100" width="40" height="20" as="geometry" />
        </mxCell>
        <mxCell id="tWNSDuBQgDKEG3OZ49LE-63" style="edgeStyle=orthogonalEdgeStyle;rounded=0;orthogonalLoop=1;jettySize=auto;html=1;exitX=0.5;exitY=0;exitDx=0;exitDy=0;entryX=0.5;entryY=1;entryDx=0;entryDy=0;" edge="1" parent="1" source="tWNSDuBQgDKEG3OZ49LE-64" target="tWNSDuBQgDKEG3OZ49LE-69">
          <mxGeometry relative="1" as="geometry" />
        </mxCell>
        <mxCell id="tWNSDuBQgDKEG3OZ49LE-64" value="&lt;b&gt;last&lt;/b&gt;" style="text;html=1;strokeColor=none;fillColor=none;align=center;verticalAlign=middle;whiteSpace=wrap;rounded=0;fontSize=21;" vertex="1" parent="1">
          <mxGeometry x="1085" y="100" width="40" height="20" as="geometry" />
        </mxCell>
        <mxCell id="tWNSDuBQgDKEG3OZ49LE-65" value="null" style="rounded=0;whiteSpace=wrap;html=1;fillColor=#f5f5f5;strokeColor=#666666;fontSize=18;fontStyle=1;dashed=1;fontColor=#333333;" vertex="1" parent="1">
          <mxGeometry x="810" y="20" width="50" height="50" as="geometry" />
        </mxCell>
        <mxCell id="tWNSDuBQgDKEG3OZ49LE-66" value="null" style="rounded=0;whiteSpace=wrap;html=1;fillColor=#f5f5f5;strokeColor=#666666;fontSize=18;fontStyle=1;dashed=1;fontColor=#333333;" vertex="1" parent="1">
          <mxGeometry x="1170" y="20" width="50" height="50" as="geometry" />
        </mxCell>
        <mxCell id="tWNSDuBQgDKEG3OZ49LE-67" style="edgeStyle=orthogonalEdgeStyle;rounded=0;orthogonalLoop=1;jettySize=auto;html=1;exitX=0;exitY=0.25;exitDx=0;exitDy=0;entryX=1;entryY=0.25;entryDx=0;entryDy=0;" edge="1" parent="1" source="tWNSDuBQgDKEG3OZ49LE-69" target="tWNSDuBQgDKEG3OZ49LE-60">
          <mxGeometry relative="1" as="geometry" />
        </mxCell>
        <mxCell id="tWNSDuBQgDKEG3OZ49LE-68" style="edgeStyle=orthogonalEdgeStyle;rounded=0;orthogonalLoop=1;jettySize=auto;html=1;exitX=1;exitY=0.75;exitDx=0;exitDy=0;entryX=0;entryY=0.75;entryDx=0;entryDy=0;" edge="1" parent="1" source="tWNSDuBQgDKEG3OZ49LE-69" target="tWNSDuBQgDKEG3OZ49LE-66">
          <mxGeometry relative="1" as="geometry" />
        </mxCell>
        <mxCell id="tWNSDuBQgDKEG3OZ49LE-69" value="C" style="rounded=0;whiteSpace=wrap;html=1;fillColor=#d5e8d4;strokeColor=#82b366;fontStyle=1;fontSize=18;" vertex="1" parent="1">
          <mxGeometry x="1080" y="20" width="50" height="50" as="geometry" />
        </mxCell>
        <mxCell id="tWNSDuBQgDKEG3OZ49LE-83" style="edgeStyle=orthogonalEdgeStyle;rounded=0;orthogonalLoop=1;jettySize=auto;html=1;exitX=0;exitY=0.25;exitDx=0;exitDy=0;entryX=1;entryY=0.5;entryDx=0;entryDy=0;" edge="1" parent="1" source="tWNSDuBQgDKEG3OZ49LE-85">
          <mxGeometry relative="1" as="geometry">
            <mxPoint x="860" y="422" as="targetPoint" />
          </mxGeometry>
        </mxCell>
        <mxCell id="tWNSDuBQgDKEG3OZ49LE-84" style="edgeStyle=orthogonalEdgeStyle;rounded=0;orthogonalLoop=1;jettySize=auto;html=1;exitX=1;exitY=0.75;exitDx=0;exitDy=0;entryX=0;entryY=0.75;entryDx=0;entryDy=0;" edge="1" parent="1" source="tWNSDuBQgDKEG3OZ49LE-85" target="tWNSDuBQgDKEG3OZ49LE-94">
          <mxGeometry relative="1" as="geometry" />
        </mxCell>
        <mxCell id="tWNSDuBQgDKEG3OZ49LE-85" value="B" style="rounded=0;whiteSpace=wrap;html=1;fillColor=#d5e8d4;strokeColor=#82b366;fontSize=18;fontStyle=1" vertex="1" parent="1">
          <mxGeometry x="990" y="410" width="50" height="50" as="geometry" />
        </mxCell>
        <mxCell id="tWNSDuBQgDKEG3OZ49LE-86" style="edgeStyle=orthogonalEdgeStyle;rounded=0;orthogonalLoop=1;jettySize=auto;html=1;exitX=0.5;exitY=0;exitDx=0;exitDy=0;entryX=0.5;entryY=1;entryDx=0;entryDy=0;" edge="1" parent="1" source="tWNSDuBQgDKEG3OZ49LE-87" target="tWNSDuBQgDKEG3OZ49LE-85">
          <mxGeometry relative="1" as="geometry" />
        </mxCell>
        <mxCell id="tWNSDuBQgDKEG3OZ49LE-87" value="&lt;b&gt;first&lt;/b&gt;" style="text;html=1;strokeColor=none;fillColor=none;align=center;verticalAlign=middle;whiteSpace=wrap;rounded=0;fontSize=21;" vertex="1" parent="1">
          <mxGeometry x="995" y="490" width="40" height="20" as="geometry" />
        </mxCell>
        <mxCell id="tWNSDuBQgDKEG3OZ49LE-88" style="edgeStyle=orthogonalEdgeStyle;rounded=0;orthogonalLoop=1;jettySize=auto;html=1;exitX=0.5;exitY=0;exitDx=0;exitDy=0;entryX=0.5;entryY=1;entryDx=0;entryDy=0;" edge="1" parent="1" source="tWNSDuBQgDKEG3OZ49LE-89" target="tWNSDuBQgDKEG3OZ49LE-94">
          <mxGeometry relative="1" as="geometry" />
        </mxCell>
        <mxCell id="tWNSDuBQgDKEG3OZ49LE-89" value="&lt;b&gt;last&lt;/b&gt;" style="text;html=1;strokeColor=none;fillColor=none;align=center;verticalAlign=middle;whiteSpace=wrap;rounded=0;fontSize=21;" vertex="1" parent="1">
          <mxGeometry x="1085" y="490" width="40" height="20" as="geometry" />
        </mxCell>
        <mxCell id="tWNSDuBQgDKEG3OZ49LE-90" value="null" style="rounded=0;whiteSpace=wrap;html=1;fillColor=#f5f5f5;strokeColor=#666666;fontSize=18;fontStyle=1;dashed=1;fontColor=#333333;" vertex="1" parent="1">
          <mxGeometry x="810" y="410" width="50" height="50" as="geometry" />
        </mxCell>
        <mxCell id="tWNSDuBQgDKEG3OZ49LE-91" value="null" style="rounded=0;whiteSpace=wrap;html=1;fillColor=#f5f5f5;strokeColor=#666666;fontSize=18;fontStyle=1;dashed=1;fontColor=#333333;" vertex="1" parent="1">
          <mxGeometry x="1170" y="410" width="50" height="50" as="geometry" />
        </mxCell>
        <mxCell id="tWNSDuBQgDKEG3OZ49LE-92" style="edgeStyle=orthogonalEdgeStyle;rounded=0;orthogonalLoop=1;jettySize=auto;html=1;exitX=1;exitY=0.75;exitDx=0;exitDy=0;entryX=0;entryY=0.75;entryDx=0;entryDy=0;" edge="1" parent="1" source="tWNSDuBQgDKEG3OZ49LE-94" target="tWNSDuBQgDKEG3OZ49LE-91">
          <mxGeometry relative="1" as="geometry" />
        </mxCell>
        <mxCell id="tWNSDuBQgDKEG3OZ49LE-93" style="edgeStyle=orthogonalEdgeStyle;rounded=0;orthogonalLoop=1;jettySize=auto;html=1;exitX=0;exitY=0.25;exitDx=0;exitDy=0;entryX=1;entryY=0.25;entryDx=0;entryDy=0;" edge="1" parent="1" source="tWNSDuBQgDKEG3OZ49LE-94" target="tWNSDuBQgDKEG3OZ49LE-85">
          <mxGeometry relative="1" as="geometry" />
        </mxCell>
        <mxCell id="tWNSDuBQgDKEG3OZ49LE-94" value="C" style="rounded=0;whiteSpace=wrap;html=1;fillColor=#d5e8d4;strokeColor=#82b366;fontStyle=1;fontSize=18;" vertex="1" parent="1">
          <mxGeometry x="1080" y="410" width="50" height="50" as="geometry" />
        </mxCell>
        <mxCell id="tWNSDuBQgDKEG3OZ49LE-129" style="edgeStyle=orthogonalEdgeStyle;rounded=0;orthogonalLoop=1;jettySize=auto;html=1;exitX=0;exitY=0.25;exitDx=0;exitDy=0;entryX=1;entryY=0.25;entryDx=0;entryDy=0;" edge="1" parent="1" source="tWNSDuBQgDKEG3OZ49LE-97" target="tWNSDuBQgDKEG3OZ49LE-105">
          <mxGeometry relative="1" as="geometry" />
        </mxCell>
        <mxCell id="tWNSDuBQgDKEG3OZ49LE-130" style="edgeStyle=orthogonalEdgeStyle;rounded=0;orthogonalLoop=1;jettySize=auto;html=1;exitX=1;exitY=0.75;exitDx=0;exitDy=0;entryX=0;entryY=0.75;entryDx=0;entryDy=0;" edge="1" parent="1" source="tWNSDuBQgDKEG3OZ49LE-97" target="tWNSDuBQgDKEG3OZ49LE-100">
          <mxGeometry relative="1" as="geometry" />
        </mxCell>
        <mxCell id="tWNSDuBQgDKEG3OZ49LE-97" value="A" style="rounded=0;whiteSpace=wrap;html=1;fillColor=#f8cecc;strokeColor=#b85450;fontSize=18;fontStyle=1" vertex="1" parent="1">
          <mxGeometry x="900" y="150" width="50" height="50" as="geometry" />
        </mxCell>
        <mxCell id="tWNSDuBQgDKEG3OZ49LE-99" style="edgeStyle=orthogonalEdgeStyle;rounded=0;orthogonalLoop=1;jettySize=auto;html=1;exitX=1;exitY=0.75;exitDx=0;exitDy=0;entryX=0;entryY=0.75;entryDx=0;entryDy=0;" edge="1" parent="1" source="tWNSDuBQgDKEG3OZ49LE-100" target="tWNSDuBQgDKEG3OZ49LE-109">
          <mxGeometry relative="1" as="geometry" />
        </mxCell>
        <mxCell id="tWNSDuBQgDKEG3OZ49LE-128" style="edgeStyle=orthogonalEdgeStyle;rounded=0;orthogonalLoop=1;jettySize=auto;html=1;exitX=0;exitY=0.25;exitDx=0;exitDy=0;entryX=1;entryY=0.25;entryDx=0;entryDy=0;" edge="1" parent="1" source="tWNSDuBQgDKEG3OZ49LE-100" target="tWNSDuBQgDKEG3OZ49LE-97">
          <mxGeometry relative="1" as="geometry" />
        </mxCell>
        <mxCell id="tWNSDuBQgDKEG3OZ49LE-100" value="B" style="rounded=0;whiteSpace=wrap;html=1;fillColor=#d5e8d4;strokeColor=#82b366;fontStyle=1;fontSize=18;" vertex="1" parent="1">
          <mxGeometry x="990" y="150" width="50" height="50" as="geometry" />
        </mxCell>
        <mxCell id="tWNSDuBQgDKEG3OZ49LE-131" style="edgeStyle=orthogonalEdgeStyle;rounded=0;orthogonalLoop=1;jettySize=auto;html=1;exitX=0.5;exitY=0;exitDx=0;exitDy=0;entryX=0.5;entryY=1;entryDx=0;entryDy=0;" edge="1" parent="1" source="tWNSDuBQgDKEG3OZ49LE-102" target="tWNSDuBQgDKEG3OZ49LE-100">
          <mxGeometry relative="1" as="geometry" />
        </mxCell>
        <mxCell id="tWNSDuBQgDKEG3OZ49LE-102" value="&lt;b&gt;first&lt;/b&gt;" style="text;html=1;strokeColor=none;fillColor=none;align=center;verticalAlign=middle;whiteSpace=wrap;rounded=0;fontSize=21;" vertex="1" parent="1">
          <mxGeometry x="995" y="230" width="40" height="20" as="geometry" />
        </mxCell>
        <mxCell id="tWNSDuBQgDKEG3OZ49LE-103" style="edgeStyle=orthogonalEdgeStyle;rounded=0;orthogonalLoop=1;jettySize=auto;html=1;exitX=0.5;exitY=0;exitDx=0;exitDy=0;entryX=0.5;entryY=1;entryDx=0;entryDy=0;" edge="1" parent="1" source="tWNSDuBQgDKEG3OZ49LE-104" target="tWNSDuBQgDKEG3OZ49LE-109">
          <mxGeometry relative="1" as="geometry" />
        </mxCell>
        <mxCell id="tWNSDuBQgDKEG3OZ49LE-104" value="&lt;b&gt;last&lt;/b&gt;" style="text;html=1;strokeColor=none;fillColor=none;align=center;verticalAlign=middle;whiteSpace=wrap;rounded=0;fontSize=21;" vertex="1" parent="1">
          <mxGeometry x="1085" y="230" width="40" height="20" as="geometry" />
        </mxCell>
        <mxCell id="tWNSDuBQgDKEG3OZ49LE-105" value="null" style="rounded=0;whiteSpace=wrap;html=1;fillColor=#f5f5f5;strokeColor=#666666;fontSize=18;fontStyle=1;dashed=1;fontColor=#333333;" vertex="1" parent="1">
          <mxGeometry x="810" y="150" width="50" height="50" as="geometry" />
        </mxCell>
        <mxCell id="tWNSDuBQgDKEG3OZ49LE-106" value="null" style="rounded=0;whiteSpace=wrap;html=1;fillColor=#f5f5f5;strokeColor=#666666;fontSize=18;fontStyle=1;dashed=1;fontColor=#333333;" vertex="1" parent="1">
          <mxGeometry x="1170" y="150" width="50" height="50" as="geometry" />
        </mxCell>
        <mxCell id="tWNSDuBQgDKEG3OZ49LE-107" style="edgeStyle=orthogonalEdgeStyle;rounded=0;orthogonalLoop=1;jettySize=auto;html=1;exitX=0;exitY=0.25;exitDx=0;exitDy=0;entryX=1;entryY=0.25;entryDx=0;entryDy=0;" edge="1" parent="1" source="tWNSDuBQgDKEG3OZ49LE-109" target="tWNSDuBQgDKEG3OZ49LE-100">
          <mxGeometry relative="1" as="geometry" />
        </mxCell>
        <mxCell id="tWNSDuBQgDKEG3OZ49LE-108" style="edgeStyle=orthogonalEdgeStyle;rounded=0;orthogonalLoop=1;jettySize=auto;html=1;exitX=1;exitY=0.75;exitDx=0;exitDy=0;entryX=0;entryY=0.75;entryDx=0;entryDy=0;" edge="1" parent="1" source="tWNSDuBQgDKEG3OZ49LE-109" target="tWNSDuBQgDKEG3OZ49LE-106">
          <mxGeometry relative="1" as="geometry" />
        </mxCell>
        <mxCell id="tWNSDuBQgDKEG3OZ49LE-109" value="C" style="rounded=0;whiteSpace=wrap;html=1;fillColor=#d5e8d4;strokeColor=#82b366;fontStyle=1;fontSize=18;" vertex="1" parent="1">
          <mxGeometry x="1080" y="150" width="50" height="50" as="geometry" />
        </mxCell>
        <mxCell id="tWNSDuBQgDKEG3OZ49LE-113" style="edgeStyle=orthogonalEdgeStyle;rounded=0;orthogonalLoop=1;jettySize=auto;html=1;exitX=0;exitY=0.25;exitDx=0;exitDy=0;entryX=1;entryY=0.5;entryDx=0;entryDy=0;" edge="1" parent="1" source="tWNSDuBQgDKEG3OZ49LE-114">
          <mxGeometry relative="1" as="geometry">
            <mxPoint x="350" y="292" as="targetPoint" />
          </mxGeometry>
        </mxCell>
        <mxCell id="tWNSDuBQgDKEG3OZ49LE-114" value="A" style="rounded=0;whiteSpace=wrap;html=1;fillColor=#d5e8d4;strokeColor=#82b366;fontSize=18;fontStyle=1" vertex="1" parent="1">
          <mxGeometry x="390" y="280" width="50" height="50" as="geometry" />
        </mxCell>
        <mxCell id="tWNSDuBQgDKEG3OZ49LE-116" value="B" style="rounded=0;whiteSpace=wrap;html=1;fillColor=#f8cecc;strokeColor=#b85450;fontStyle=1;fontSize=18;" vertex="1" parent="1">
          <mxGeometry x="480" y="280" width="50" height="50" as="geometry" />
        </mxCell>
        <mxCell id="tWNSDuBQgDKEG3OZ49LE-117" style="edgeStyle=orthogonalEdgeStyle;rounded=0;orthogonalLoop=1;jettySize=auto;html=1;exitX=0.5;exitY=0;exitDx=0;exitDy=0;entryX=0.5;entryY=1;entryDx=0;entryDy=0;" edge="1" parent="1" source="tWNSDuBQgDKEG3OZ49LE-118" target="tWNSDuBQgDKEG3OZ49LE-114">
          <mxGeometry relative="1" as="geometry" />
        </mxCell>
        <mxCell id="tWNSDuBQgDKEG3OZ49LE-118" value="&lt;b&gt;first&lt;/b&gt;" style="text;html=1;strokeColor=none;fillColor=none;align=center;verticalAlign=middle;whiteSpace=wrap;rounded=0;fontSize=21;" vertex="1" parent="1">
          <mxGeometry x="395" y="360" width="40" height="20" as="geometry" />
        </mxCell>
        <mxCell id="tWNSDuBQgDKEG3OZ49LE-119" style="edgeStyle=orthogonalEdgeStyle;rounded=0;orthogonalLoop=1;jettySize=auto;html=1;exitX=0.5;exitY=0;exitDx=0;exitDy=0;entryX=0.5;entryY=1;entryDx=0;entryDy=0;" edge="1" parent="1" source="tWNSDuBQgDKEG3OZ49LE-120" target="tWNSDuBQgDKEG3OZ49LE-125">
          <mxGeometry relative="1" as="geometry" />
        </mxCell>
        <mxCell id="tWNSDuBQgDKEG3OZ49LE-120" value="&lt;b&gt;last&lt;/b&gt;" style="text;html=1;strokeColor=none;fillColor=none;align=center;verticalAlign=middle;whiteSpace=wrap;rounded=0;fontSize=21;" vertex="1" parent="1">
          <mxGeometry x="575" y="360" width="40" height="20" as="geometry" />
        </mxCell>
        <mxCell id="tWNSDuBQgDKEG3OZ49LE-121" value="null" style="rounded=0;whiteSpace=wrap;html=1;fillColor=#f5f5f5;strokeColor=#666666;fontSize=18;fontStyle=1;dashed=1;fontColor=#333333;" vertex="1" parent="1">
          <mxGeometry x="300" y="280" width="50" height="50" as="geometry" />
        </mxCell>
        <mxCell id="tWNSDuBQgDKEG3OZ49LE-122" value="null" style="rounded=0;whiteSpace=wrap;html=1;fillColor=#f5f5f5;strokeColor=#666666;fontSize=18;fontStyle=1;dashed=1;fontColor=#333333;" vertex="1" parent="1">
          <mxGeometry x="660" y="280" width="50" height="50" as="geometry" />
        </mxCell>
        <mxCell id="tWNSDuBQgDKEG3OZ49LE-123" style="edgeStyle=orthogonalEdgeStyle;rounded=0;orthogonalLoop=1;jettySize=auto;html=1;exitX=1;exitY=0.75;exitDx=0;exitDy=0;entryX=0;entryY=0.75;entryDx=0;entryDy=0;" edge="1" parent="1" source="tWNSDuBQgDKEG3OZ49LE-125" target="tWNSDuBQgDKEG3OZ49LE-122">
          <mxGeometry relative="1" as="geometry" />
        </mxCell>
        <mxCell id="tWNSDuBQgDKEG3OZ49LE-125" value="C" style="rounded=0;whiteSpace=wrap;html=1;fillColor=#d5e8d4;strokeColor=#82b366;fontStyle=1;fontSize=18;" vertex="1" parent="1">
          <mxGeometry x="570" y="280" width="50" height="50" as="geometry" />
        </mxCell>
        <mxCell id="tWNSDuBQgDKEG3OZ49LE-126" style="edgeStyle=orthogonalEdgeStyle;rounded=0;orthogonalLoop=1;jettySize=auto;html=1;exitX=1;exitY=0.75;exitDx=0;exitDy=0;entryX=0;entryY=0.75;entryDx=0;entryDy=0;curved=1;" edge="1" parent="1" source="tWNSDuBQgDKEG3OZ49LE-114" target="tWNSDuBQgDKEG3OZ49LE-125">
          <mxGeometry relative="1" as="geometry">
            <Array as="points">
              <mxPoint x="440" y="350" />
              <mxPoint x="570" y="350" />
            </Array>
          </mxGeometry>
        </mxCell>
        <mxCell id="tWNSDuBQgDKEG3OZ49LE-127" style="edgeStyle=orthogonalEdgeStyle;rounded=0;orthogonalLoop=1;jettySize=auto;html=1;exitX=0;exitY=0.25;exitDx=0;exitDy=0;entryX=1;entryY=0.25;entryDx=0;entryDy=0;curved=1;" edge="1" parent="1" source="tWNSDuBQgDKEG3OZ49LE-125" target="tWNSDuBQgDKEG3OZ49LE-114">
          <mxGeometry relative="1" as="geometry">
            <Array as="points">
              <mxPoint x="570" y="260" />
              <mxPoint x="440" y="260" />
            </Array>
          </mxGeometry>
        </mxCell>
        <mxCell id="tWNSDuBQgDKEG3OZ49LE-132" style="edgeStyle=orthogonalEdgeStyle;rounded=0;orthogonalLoop=1;jettySize=auto;html=1;exitX=0;exitY=0.25;exitDx=0;exitDy=0;entryX=1;entryY=0.25;entryDx=0;entryDy=0;" edge="1" parent="1" source="tWNSDuBQgDKEG3OZ49LE-134" target="tWNSDuBQgDKEG3OZ49LE-142">
          <mxGeometry relative="1" as="geometry" />
        </mxCell>
        <mxCell id="tWNSDuBQgDKEG3OZ49LE-134" value="A" style="rounded=0;whiteSpace=wrap;html=1;fillColor=#f8cecc;strokeColor=#b85450;fontSize=18;fontStyle=1" vertex="1" parent="1">
          <mxGeometry x="900" y="280" width="50" height="50" as="geometry" />
        </mxCell>
        <mxCell id="tWNSDuBQgDKEG3OZ49LE-135" style="edgeStyle=orthogonalEdgeStyle;rounded=0;orthogonalLoop=1;jettySize=auto;html=1;exitX=1;exitY=0.75;exitDx=0;exitDy=0;entryX=0;entryY=0.75;entryDx=0;entryDy=0;" edge="1" parent="1" source="tWNSDuBQgDKEG3OZ49LE-137" target="tWNSDuBQgDKEG3OZ49LE-146">
          <mxGeometry relative="1" as="geometry" />
        </mxCell>
        <mxCell id="tWNSDuBQgDKEG3OZ49LE-137" value="B" style="rounded=0;whiteSpace=wrap;html=1;fillColor=#d5e8d4;strokeColor=#82b366;fontStyle=1;fontSize=18;" vertex="1" parent="1">
          <mxGeometry x="990" y="280" width="50" height="50" as="geometry" />
        </mxCell>
        <mxCell id="tWNSDuBQgDKEG3OZ49LE-138" style="edgeStyle=orthogonalEdgeStyle;rounded=0;orthogonalLoop=1;jettySize=auto;html=1;exitX=0.5;exitY=0;exitDx=0;exitDy=0;entryX=0.5;entryY=1;entryDx=0;entryDy=0;" edge="1" parent="1" source="tWNSDuBQgDKEG3OZ49LE-139" target="tWNSDuBQgDKEG3OZ49LE-137">
          <mxGeometry relative="1" as="geometry" />
        </mxCell>
        <mxCell id="tWNSDuBQgDKEG3OZ49LE-139" value="&lt;b&gt;first&lt;/b&gt;" style="text;html=1;strokeColor=none;fillColor=none;align=center;verticalAlign=middle;whiteSpace=wrap;rounded=0;fontSize=21;" vertex="1" parent="1">
          <mxGeometry x="995" y="360" width="40" height="20" as="geometry" />
        </mxCell>
        <mxCell id="tWNSDuBQgDKEG3OZ49LE-140" style="edgeStyle=orthogonalEdgeStyle;rounded=0;orthogonalLoop=1;jettySize=auto;html=1;exitX=0.5;exitY=0;exitDx=0;exitDy=0;entryX=0.5;entryY=1;entryDx=0;entryDy=0;" edge="1" parent="1" source="tWNSDuBQgDKEG3OZ49LE-141" target="tWNSDuBQgDKEG3OZ49LE-146">
          <mxGeometry relative="1" as="geometry" />
        </mxCell>
        <mxCell id="tWNSDuBQgDKEG3OZ49LE-141" value="&lt;b&gt;last&lt;/b&gt;" style="text;html=1;strokeColor=none;fillColor=none;align=center;verticalAlign=middle;whiteSpace=wrap;rounded=0;fontSize=21;" vertex="1" parent="1">
          <mxGeometry x="1085" y="360" width="40" height="20" as="geometry" />
        </mxCell>
        <mxCell id="tWNSDuBQgDKEG3OZ49LE-142" value="null" style="rounded=0;whiteSpace=wrap;html=1;fillColor=#f5f5f5;strokeColor=#666666;fontSize=18;fontStyle=1;dashed=1;fontColor=#333333;" vertex="1" parent="1">
          <mxGeometry x="810" y="280" width="50" height="50" as="geometry" />
        </mxCell>
        <mxCell id="tWNSDuBQgDKEG3OZ49LE-143" value="null" style="rounded=0;whiteSpace=wrap;html=1;fillColor=#f5f5f5;strokeColor=#666666;fontSize=18;fontStyle=1;dashed=1;fontColor=#333333;" vertex="1" parent="1">
          <mxGeometry x="1170" y="280" width="50" height="50" as="geometry" />
        </mxCell>
        <mxCell id="tWNSDuBQgDKEG3OZ49LE-144" style="edgeStyle=orthogonalEdgeStyle;rounded=0;orthogonalLoop=1;jettySize=auto;html=1;exitX=0;exitY=0.25;exitDx=0;exitDy=0;entryX=1;entryY=0.25;entryDx=0;entryDy=0;" edge="1" parent="1" source="tWNSDuBQgDKEG3OZ49LE-146" target="tWNSDuBQgDKEG3OZ49LE-137">
          <mxGeometry relative="1" as="geometry" />
        </mxCell>
        <mxCell id="tWNSDuBQgDKEG3OZ49LE-145" style="edgeStyle=orthogonalEdgeStyle;rounded=0;orthogonalLoop=1;jettySize=auto;html=1;exitX=1;exitY=0.75;exitDx=0;exitDy=0;entryX=0;entryY=0.75;entryDx=0;entryDy=0;" edge="1" parent="1" source="tWNSDuBQgDKEG3OZ49LE-146" target="tWNSDuBQgDKEG3OZ49LE-143">
          <mxGeometry relative="1" as="geometry" />
        </mxCell>
        <mxCell id="tWNSDuBQgDKEG3OZ49LE-146" value="C" style="rounded=0;whiteSpace=wrap;html=1;fillColor=#d5e8d4;strokeColor=#82b366;fontStyle=1;fontSize=18;" vertex="1" parent="1">
          <mxGeometry x="1080" y="280" width="50" height="50" as="geometry" />
        </mxCell>
        <mxCell id="tWNSDuBQgDKEG3OZ49LE-147" style="edgeStyle=orthogonalEdgeStyle;rounded=0;orthogonalLoop=1;jettySize=auto;html=1;exitX=0;exitY=0.25;exitDx=0;exitDy=0;entryX=1;entryY=0.25;entryDx=0;entryDy=0;curved=1;" edge="1" parent="1" source="tWNSDuBQgDKEG3OZ49LE-137" target="tWNSDuBQgDKEG3OZ49LE-142">
          <mxGeometry relative="1" as="geometry">
            <Array as="points">
              <mxPoint x="990" y="260" />
              <mxPoint x="860" y="260" />
            </Array>
          </mxGeometry>
        </mxCell>
        <mxCell id="tWNSDuBQgDKEG3OZ49LE-148" style="edgeStyle=orthogonalEdgeStyle;rounded=0;orthogonalLoop=1;jettySize=auto;html=1;exitX=0;exitY=0.25;exitDx=0;exitDy=0;entryX=1;entryY=0.5;entryDx=0;entryDy=0;" edge="1" parent="1" source="tWNSDuBQgDKEG3OZ49LE-150">
          <mxGeometry relative="1" as="geometry">
            <mxPoint x="860" y="612" as="targetPoint" />
          </mxGeometry>
        </mxCell>
        <mxCell id="tWNSDuBQgDKEG3OZ49LE-149" style="edgeStyle=orthogonalEdgeStyle;rounded=0;orthogonalLoop=1;jettySize=auto;html=1;exitX=1;exitY=0.75;exitDx=0;exitDy=0;entryX=0;entryY=0.75;entryDx=0;entryDy=0;" edge="1" parent="1" source="tWNSDuBQgDKEG3OZ49LE-150" target="tWNSDuBQgDKEG3OZ49LE-153">
          <mxGeometry relative="1" as="geometry" />
        </mxCell>
        <mxCell id="tWNSDuBQgDKEG3OZ49LE-150" value="A" style="rounded=0;whiteSpace=wrap;html=1;fillColor=#d5e8d4;strokeColor=#82b366;fontSize=18;fontStyle=1" vertex="1" parent="1">
          <mxGeometry x="900" y="600" width="50" height="50" as="geometry" />
        </mxCell>
        <mxCell id="tWNSDuBQgDKEG3OZ49LE-151" style="edgeStyle=orthogonalEdgeStyle;rounded=0;orthogonalLoop=1;jettySize=auto;html=1;exitX=0;exitY=0.25;exitDx=0;exitDy=0;entryX=1;entryY=0.25;entryDx=0;entryDy=0;" edge="1" parent="1" source="tWNSDuBQgDKEG3OZ49LE-153" target="tWNSDuBQgDKEG3OZ49LE-150">
          <mxGeometry relative="1" as="geometry" />
        </mxCell>
        <mxCell id="tWNSDuBQgDKEG3OZ49LE-152" style="edgeStyle=orthogonalEdgeStyle;rounded=0;orthogonalLoop=1;jettySize=auto;html=1;exitX=1;exitY=0.75;exitDx=0;exitDy=0;entryX=0;entryY=0.75;entryDx=0;entryDy=0;" edge="1" parent="1" source="tWNSDuBQgDKEG3OZ49LE-153" target="tWNSDuBQgDKEG3OZ49LE-162">
          <mxGeometry relative="1" as="geometry" />
        </mxCell>
        <mxCell id="tWNSDuBQgDKEG3OZ49LE-153" value="B" style="rounded=0;whiteSpace=wrap;html=1;fillColor=#d5e8d4;strokeColor=#82b366;fontStyle=1;fontSize=18;" vertex="1" parent="1">
          <mxGeometry x="990" y="600" width="50" height="50" as="geometry" />
        </mxCell>
        <mxCell id="tWNSDuBQgDKEG3OZ49LE-154" style="edgeStyle=orthogonalEdgeStyle;rounded=0;orthogonalLoop=1;jettySize=auto;html=1;exitX=0.5;exitY=0;exitDx=0;exitDy=0;entryX=0.5;entryY=1;entryDx=0;entryDy=0;" edge="1" parent="1" source="tWNSDuBQgDKEG3OZ49LE-155" target="tWNSDuBQgDKEG3OZ49LE-150">
          <mxGeometry relative="1" as="geometry" />
        </mxCell>
        <mxCell id="tWNSDuBQgDKEG3OZ49LE-155" value="&lt;b&gt;first&lt;/b&gt;" style="text;html=1;strokeColor=none;fillColor=none;align=center;verticalAlign=middle;whiteSpace=wrap;rounded=0;fontSize=21;" vertex="1" parent="1">
          <mxGeometry x="905" y="680" width="40" height="20" as="geometry" />
        </mxCell>
        <mxCell id="tWNSDuBQgDKEG3OZ49LE-156" style="edgeStyle=orthogonalEdgeStyle;rounded=0;orthogonalLoop=1;jettySize=auto;html=1;exitX=0.5;exitY=0;exitDx=0;exitDy=0;entryX=0.5;entryY=1;entryDx=0;entryDy=0;" edge="1" parent="1" source="tWNSDuBQgDKEG3OZ49LE-157" target="tWNSDuBQgDKEG3OZ49LE-162">
          <mxGeometry relative="1" as="geometry" />
        </mxCell>
        <mxCell id="tWNSDuBQgDKEG3OZ49LE-157" value="&lt;b&gt;last&lt;/b&gt;" style="text;html=1;strokeColor=none;fillColor=none;align=center;verticalAlign=middle;whiteSpace=wrap;rounded=0;fontSize=21;" vertex="1" parent="1">
          <mxGeometry x="1085" y="680" width="40" height="20" as="geometry" />
        </mxCell>
        <mxCell id="tWNSDuBQgDKEG3OZ49LE-158" value="null" style="rounded=0;whiteSpace=wrap;html=1;fillColor=#f5f5f5;strokeColor=#666666;fontSize=18;fontStyle=1;dashed=1;fontColor=#333333;" vertex="1" parent="1">
          <mxGeometry x="810" y="600" width="50" height="50" as="geometry" />
        </mxCell>
        <mxCell id="tWNSDuBQgDKEG3OZ49LE-159" value="null" style="rounded=0;whiteSpace=wrap;html=1;fillColor=#f5f5f5;strokeColor=#666666;fontSize=18;fontStyle=1;dashed=1;fontColor=#333333;" vertex="1" parent="1">
          <mxGeometry x="1170" y="600" width="50" height="50" as="geometry" />
        </mxCell>
        <mxCell id="tWNSDuBQgDKEG3OZ49LE-160" style="edgeStyle=orthogonalEdgeStyle;rounded=0;orthogonalLoop=1;jettySize=auto;html=1;exitX=0;exitY=0.25;exitDx=0;exitDy=0;entryX=1;entryY=0.25;entryDx=0;entryDy=0;" edge="1" parent="1" source="tWNSDuBQgDKEG3OZ49LE-162" target="tWNSDuBQgDKEG3OZ49LE-153">
          <mxGeometry relative="1" as="geometry" />
        </mxCell>
        <mxCell id="tWNSDuBQgDKEG3OZ49LE-161" style="edgeStyle=orthogonalEdgeStyle;rounded=0;orthogonalLoop=1;jettySize=auto;html=1;exitX=1;exitY=0.75;exitDx=0;exitDy=0;entryX=0;entryY=0.75;entryDx=0;entryDy=0;" edge="1" parent="1" source="tWNSDuBQgDKEG3OZ49LE-162" target="tWNSDuBQgDKEG3OZ49LE-159">
          <mxGeometry relative="1" as="geometry" />
        </mxCell>
        <mxCell id="tWNSDuBQgDKEG3OZ49LE-162" value="C" style="rounded=0;whiteSpace=wrap;html=1;fillColor=#f8cecc;strokeColor=#b85450;fontStyle=1;fontSize=18;" vertex="1" parent="1">
          <mxGeometry x="1080" y="600" width="50" height="50" as="geometry" />
        </mxCell>
        <mxCell id="tWNSDuBQgDKEG3OZ49LE-163" style="edgeStyle=orthogonalEdgeStyle;rounded=0;orthogonalLoop=1;jettySize=auto;html=1;exitX=0;exitY=0.25;exitDx=0;exitDy=0;entryX=1;entryY=0.5;entryDx=0;entryDy=0;" edge="1" parent="1" source="tWNSDuBQgDKEG3OZ49LE-165">
          <mxGeometry relative="1" as="geometry">
            <mxPoint x="860" y="742" as="targetPoint" />
          </mxGeometry>
        </mxCell>
        <mxCell id="tWNSDuBQgDKEG3OZ49LE-164" style="edgeStyle=orthogonalEdgeStyle;rounded=0;orthogonalLoop=1;jettySize=auto;html=1;exitX=1;exitY=0.75;exitDx=0;exitDy=0;entryX=0;entryY=0.75;entryDx=0;entryDy=0;" edge="1" parent="1" source="tWNSDuBQgDKEG3OZ49LE-165" target="tWNSDuBQgDKEG3OZ49LE-168">
          <mxGeometry relative="1" as="geometry" />
        </mxCell>
        <mxCell id="tWNSDuBQgDKEG3OZ49LE-165" value="A" style="rounded=0;whiteSpace=wrap;html=1;fillColor=#d5e8d4;strokeColor=#82b366;fontSize=18;fontStyle=1" vertex="1" parent="1">
          <mxGeometry x="900" y="730" width="50" height="50" as="geometry" />
        </mxCell>
        <mxCell id="tWNSDuBQgDKEG3OZ49LE-166" style="edgeStyle=orthogonalEdgeStyle;rounded=0;orthogonalLoop=1;jettySize=auto;html=1;exitX=0;exitY=0.25;exitDx=0;exitDy=0;entryX=1;entryY=0.25;entryDx=0;entryDy=0;" edge="1" parent="1" source="tWNSDuBQgDKEG3OZ49LE-168" target="tWNSDuBQgDKEG3OZ49LE-165">
          <mxGeometry relative="1" as="geometry" />
        </mxCell>
        <mxCell id="tWNSDuBQgDKEG3OZ49LE-168" value="B" style="rounded=0;whiteSpace=wrap;html=1;fillColor=#d5e8d4;strokeColor=#82b366;fontStyle=1;fontSize=18;" vertex="1" parent="1">
          <mxGeometry x="990" y="730" width="50" height="50" as="geometry" />
        </mxCell>
        <mxCell id="tWNSDuBQgDKEG3OZ49LE-169" style="edgeStyle=orthogonalEdgeStyle;rounded=0;orthogonalLoop=1;jettySize=auto;html=1;exitX=0.5;exitY=0;exitDx=0;exitDy=0;entryX=0.5;entryY=1;entryDx=0;entryDy=0;" edge="1" parent="1" source="tWNSDuBQgDKEG3OZ49LE-170" target="tWNSDuBQgDKEG3OZ49LE-165">
          <mxGeometry relative="1" as="geometry" />
        </mxCell>
        <mxCell id="tWNSDuBQgDKEG3OZ49LE-170" value="&lt;b&gt;first&lt;/b&gt;" style="text;html=1;strokeColor=none;fillColor=none;align=center;verticalAlign=middle;whiteSpace=wrap;rounded=0;fontSize=21;" vertex="1" parent="1">
          <mxGeometry x="905" y="810" width="40" height="20" as="geometry" />
        </mxCell>
        <mxCell id="tWNSDuBQgDKEG3OZ49LE-171" style="edgeStyle=orthogonalEdgeStyle;rounded=0;orthogonalLoop=1;jettySize=auto;html=1;exitX=0.5;exitY=0;exitDx=0;exitDy=0;entryX=0.5;entryY=1;entryDx=0;entryDy=0;" edge="1" parent="1" source="tWNSDuBQgDKEG3OZ49LE-172" target="tWNSDuBQgDKEG3OZ49LE-177">
          <mxGeometry relative="1" as="geometry" />
        </mxCell>
        <mxCell id="tWNSDuBQgDKEG3OZ49LE-172" value="&lt;b&gt;last&lt;/b&gt;" style="text;html=1;strokeColor=none;fillColor=none;align=center;verticalAlign=middle;whiteSpace=wrap;rounded=0;fontSize=21;" vertex="1" parent="1">
          <mxGeometry x="1085" y="810" width="40" height="20" as="geometry" />
        </mxCell>
        <mxCell id="tWNSDuBQgDKEG3OZ49LE-173" value="null" style="rounded=0;whiteSpace=wrap;html=1;fillColor=#f5f5f5;strokeColor=#666666;fontSize=18;fontStyle=1;dashed=1;fontColor=#333333;" vertex="1" parent="1">
          <mxGeometry x="810" y="730" width="50" height="50" as="geometry" />
        </mxCell>
        <mxCell id="tWNSDuBQgDKEG3OZ49LE-174" value="null" style="rounded=0;whiteSpace=wrap;html=1;fillColor=#f5f5f5;strokeColor=#666666;fontSize=18;fontStyle=1;dashed=1;fontColor=#333333;" vertex="1" parent="1">
          <mxGeometry x="1170" y="730" width="50" height="50" as="geometry" />
        </mxCell>
        <mxCell id="tWNSDuBQgDKEG3OZ49LE-177" value="C" style="rounded=0;whiteSpace=wrap;html=1;fillColor=#f8cecc;strokeColor=#b85450;fontStyle=1;fontSize=18;" vertex="1" parent="1">
          <mxGeometry x="1080" y="730" width="50" height="50" as="geometry" />
        </mxCell>
        <mxCell id="tWNSDuBQgDKEG3OZ49LE-178" style="edgeStyle=orthogonalEdgeStyle;rounded=0;orthogonalLoop=1;jettySize=auto;html=1;exitX=1;exitY=0.75;exitDx=0;exitDy=0;entryX=0;entryY=0.75;entryDx=0;entryDy=0;curved=1;" edge="1" parent="1" source="tWNSDuBQgDKEG3OZ49LE-168" target="tWNSDuBQgDKEG3OZ49LE-174">
          <mxGeometry relative="1" as="geometry">
            <Array as="points">
              <mxPoint x="1040" y="840" />
              <mxPoint x="1170" y="840" />
            </Array>
          </mxGeometry>
        </mxCell>
        <mxCell id="tWNSDuBQgDKEG3OZ49LE-194" style="edgeStyle=orthogonalEdgeStyle;rounded=0;orthogonalLoop=1;jettySize=auto;html=1;exitX=0;exitY=0.25;exitDx=0;exitDy=0;entryX=1;entryY=0.5;entryDx=0;entryDy=0;" edge="1" parent="1" source="tWNSDuBQgDKEG3OZ49LE-196">
          <mxGeometry relative="1" as="geometry">
            <mxPoint x="860" y="872" as="targetPoint" />
          </mxGeometry>
        </mxCell>
        <mxCell id="tWNSDuBQgDKEG3OZ49LE-195" style="edgeStyle=orthogonalEdgeStyle;rounded=0;orthogonalLoop=1;jettySize=auto;html=1;exitX=1;exitY=0.75;exitDx=0;exitDy=0;entryX=0;entryY=0.75;entryDx=0;entryDy=0;" edge="1" parent="1" source="tWNSDuBQgDKEG3OZ49LE-196" target="tWNSDuBQgDKEG3OZ49LE-198">
          <mxGeometry relative="1" as="geometry" />
        </mxCell>
        <mxCell id="tWNSDuBQgDKEG3OZ49LE-196" value="A" style="rounded=0;whiteSpace=wrap;html=1;fillColor=#d5e8d4;strokeColor=#82b366;fontSize=18;fontStyle=1" vertex="1" parent="1">
          <mxGeometry x="900" y="860" width="50" height="50" as="geometry" />
        </mxCell>
        <mxCell id="tWNSDuBQgDKEG3OZ49LE-197" style="edgeStyle=orthogonalEdgeStyle;rounded=0;orthogonalLoop=1;jettySize=auto;html=1;exitX=0;exitY=0.25;exitDx=0;exitDy=0;entryX=1;entryY=0.25;entryDx=0;entryDy=0;" edge="1" parent="1" source="tWNSDuBQgDKEG3OZ49LE-198" target="tWNSDuBQgDKEG3OZ49LE-196">
          <mxGeometry relative="1" as="geometry" />
        </mxCell>
        <mxCell id="tWNSDuBQgDKEG3OZ49LE-198" value="B" style="rounded=0;whiteSpace=wrap;html=1;fillColor=#d5e8d4;strokeColor=#82b366;fontStyle=1;fontSize=18;" vertex="1" parent="1">
          <mxGeometry x="990" y="860" width="50" height="50" as="geometry" />
        </mxCell>
        <mxCell id="tWNSDuBQgDKEG3OZ49LE-199" style="edgeStyle=orthogonalEdgeStyle;rounded=0;orthogonalLoop=1;jettySize=auto;html=1;exitX=0.5;exitY=0;exitDx=0;exitDy=0;entryX=0.5;entryY=1;entryDx=0;entryDy=0;" edge="1" parent="1" source="tWNSDuBQgDKEG3OZ49LE-200" target="tWNSDuBQgDKEG3OZ49LE-196">
          <mxGeometry relative="1" as="geometry" />
        </mxCell>
        <mxCell id="tWNSDuBQgDKEG3OZ49LE-200" value="&lt;b&gt;first&lt;/b&gt;" style="text;html=1;strokeColor=none;fillColor=none;align=center;verticalAlign=middle;whiteSpace=wrap;rounded=0;fontSize=21;" vertex="1" parent="1">
          <mxGeometry x="905" y="940" width="40" height="20" as="geometry" />
        </mxCell>
        <mxCell id="tWNSDuBQgDKEG3OZ49LE-207" style="edgeStyle=orthogonalEdgeStyle;rounded=0;orthogonalLoop=1;jettySize=auto;html=1;exitX=0.5;exitY=0;exitDx=0;exitDy=0;entryX=0.5;entryY=1;entryDx=0;entryDy=0;" edge="1" parent="1" source="tWNSDuBQgDKEG3OZ49LE-202" target="tWNSDuBQgDKEG3OZ49LE-198">
          <mxGeometry relative="1" as="geometry" />
        </mxCell>
        <mxCell id="tWNSDuBQgDKEG3OZ49LE-202" value="&lt;b&gt;last&lt;/b&gt;" style="text;html=1;strokeColor=none;fillColor=none;align=center;verticalAlign=middle;whiteSpace=wrap;rounded=0;fontSize=21;" vertex="1" parent="1">
          <mxGeometry x="995" y="940" width="40" height="20" as="geometry" />
        </mxCell>
        <mxCell id="tWNSDuBQgDKEG3OZ49LE-203" value="null" style="rounded=0;whiteSpace=wrap;html=1;fillColor=#f5f5f5;strokeColor=#666666;fontSize=18;fontStyle=1;dashed=1;fontColor=#333333;" vertex="1" parent="1">
          <mxGeometry x="810" y="860" width="50" height="50" as="geometry" />
        </mxCell>
        <mxCell id="tWNSDuBQgDKEG3OZ49LE-204" value="null" style="rounded=0;whiteSpace=wrap;html=1;fillColor=#f5f5f5;strokeColor=#666666;fontSize=18;fontStyle=1;dashed=1;fontColor=#333333;" vertex="1" parent="1">
          <mxGeometry x="1170" y="860" width="50" height="50" as="geometry" />
        </mxCell>
        <mxCell id="tWNSDuBQgDKEG3OZ49LE-205" value="C" style="rounded=0;whiteSpace=wrap;html=1;fillColor=#f8cecc;strokeColor=#b85450;fontStyle=1;fontSize=18;" vertex="1" parent="1">
          <mxGeometry x="1080" y="860" width="50" height="50" as="geometry" />
        </mxCell>
        <mxCell id="tWNSDuBQgDKEG3OZ49LE-206" style="edgeStyle=orthogonalEdgeStyle;rounded=0;orthogonalLoop=1;jettySize=auto;html=1;exitX=1;exitY=0.75;exitDx=0;exitDy=0;entryX=0;entryY=0.75;entryDx=0;entryDy=0;curved=1;" edge="1" parent="1" source="tWNSDuBQgDKEG3OZ49LE-198" target="tWNSDuBQgDKEG3OZ49LE-204">
          <mxGeometry relative="1" as="geometry">
            <Array as="points">
              <mxPoint x="1040" y="940" />
              <mxPoint x="1170" y="940" />
            </Array>
          </mxGeometry>
        </mxCell>
        <mxCell id="tWNSDuBQgDKEG3OZ49LE-208" style="edgeStyle=orthogonalEdgeStyle;rounded=0;orthogonalLoop=1;jettySize=auto;html=1;exitX=0;exitY=0.25;exitDx=0;exitDy=0;entryX=1;entryY=0.5;entryDx=0;entryDy=0;" edge="1" parent="1" source="tWNSDuBQgDKEG3OZ49LE-210">
          <mxGeometry relative="1" as="geometry">
            <mxPoint x="860" y="1002" as="targetPoint" />
          </mxGeometry>
        </mxCell>
        <mxCell id="tWNSDuBQgDKEG3OZ49LE-209" style="edgeStyle=orthogonalEdgeStyle;rounded=0;orthogonalLoop=1;jettySize=auto;html=1;exitX=1;exitY=0.75;exitDx=0;exitDy=0;entryX=0;entryY=0.75;entryDx=0;entryDy=0;" edge="1" parent="1" source="tWNSDuBQgDKEG3OZ49LE-210" target="tWNSDuBQgDKEG3OZ49LE-212">
          <mxGeometry relative="1" as="geometry" />
        </mxCell>
        <mxCell id="tWNSDuBQgDKEG3OZ49LE-210" value="A" style="rounded=0;whiteSpace=wrap;html=1;fillColor=#d5e8d4;strokeColor=#82b366;fontSize=18;fontStyle=1" vertex="1" parent="1">
          <mxGeometry x="900" y="990" width="50" height="50" as="geometry" />
        </mxCell>
        <mxCell id="tWNSDuBQgDKEG3OZ49LE-211" style="edgeStyle=orthogonalEdgeStyle;rounded=0;orthogonalLoop=1;jettySize=auto;html=1;exitX=0;exitY=0.25;exitDx=0;exitDy=0;entryX=1;entryY=0.25;entryDx=0;entryDy=0;" edge="1" parent="1" source="tWNSDuBQgDKEG3OZ49LE-212" target="tWNSDuBQgDKEG3OZ49LE-210">
          <mxGeometry relative="1" as="geometry" />
        </mxCell>
        <mxCell id="tWNSDuBQgDKEG3OZ49LE-221" style="edgeStyle=orthogonalEdgeStyle;rounded=0;orthogonalLoop=1;jettySize=auto;html=1;exitX=1;exitY=0.75;exitDx=0;exitDy=0;entryX=0;entryY=0.75;entryDx=0;entryDy=0;" edge="1" parent="1" source="tWNSDuBQgDKEG3OZ49LE-212" target="tWNSDuBQgDKEG3OZ49LE-218">
          <mxGeometry relative="1" as="geometry" />
        </mxCell>
        <mxCell id="tWNSDuBQgDKEG3OZ49LE-212" value="B" style="rounded=0;whiteSpace=wrap;html=1;fillColor=#d5e8d4;strokeColor=#82b366;fontStyle=1;fontSize=18;" vertex="1" parent="1">
          <mxGeometry x="990" y="990" width="50" height="50" as="geometry" />
        </mxCell>
        <mxCell id="tWNSDuBQgDKEG3OZ49LE-213" style="edgeStyle=orthogonalEdgeStyle;rounded=0;orthogonalLoop=1;jettySize=auto;html=1;exitX=0.5;exitY=0;exitDx=0;exitDy=0;entryX=0.5;entryY=1;entryDx=0;entryDy=0;" edge="1" parent="1" source="tWNSDuBQgDKEG3OZ49LE-214" target="tWNSDuBQgDKEG3OZ49LE-210">
          <mxGeometry relative="1" as="geometry" />
        </mxCell>
        <mxCell id="tWNSDuBQgDKEG3OZ49LE-214" value="&lt;b&gt;first&lt;/b&gt;" style="text;html=1;strokeColor=none;fillColor=none;align=center;verticalAlign=middle;whiteSpace=wrap;rounded=0;fontSize=21;" vertex="1" parent="1">
          <mxGeometry x="905" y="1070" width="40" height="20" as="geometry" />
        </mxCell>
        <mxCell id="tWNSDuBQgDKEG3OZ49LE-215" style="edgeStyle=orthogonalEdgeStyle;rounded=0;orthogonalLoop=1;jettySize=auto;html=1;exitX=0.5;exitY=0;exitDx=0;exitDy=0;entryX=0.5;entryY=1;entryDx=0;entryDy=0;" edge="1" parent="1" source="tWNSDuBQgDKEG3OZ49LE-216" target="tWNSDuBQgDKEG3OZ49LE-212">
          <mxGeometry relative="1" as="geometry" />
        </mxCell>
        <mxCell id="tWNSDuBQgDKEG3OZ49LE-216" value="&lt;b&gt;last&lt;/b&gt;" style="text;html=1;strokeColor=none;fillColor=none;align=center;verticalAlign=middle;whiteSpace=wrap;rounded=0;fontSize=21;" vertex="1" parent="1">
          <mxGeometry x="995" y="1070" width="40" height="20" as="geometry" />
        </mxCell>
        <mxCell id="tWNSDuBQgDKEG3OZ49LE-217" value="null" style="rounded=0;whiteSpace=wrap;html=1;fillColor=#f5f5f5;strokeColor=#666666;fontSize=18;fontStyle=1;dashed=1;fontColor=#333333;" vertex="1" parent="1">
          <mxGeometry x="810" y="990" width="50" height="50" as="geometry" />
        </mxCell>
        <mxCell id="tWNSDuBQgDKEG3OZ49LE-218" value="null" style="rounded=0;whiteSpace=wrap;html=1;fillColor=#f5f5f5;strokeColor=#666666;fontSize=18;fontStyle=1;dashed=1;fontColor=#333333;" vertex="1" parent="1">
          <mxGeometry x="1170" y="990" width="50" height="50" as="geometry" />
        </mxCell>
        <mxCell id="tWNSDuBQgDKEG3OZ49LE-222" style="edgeStyle=orthogonalEdgeStyle;rounded=0;orthogonalLoop=1;jettySize=auto;html=1;exitX=0;exitY=0.25;exitDx=0;exitDy=0;entryX=1;entryY=0.5;entryDx=0;entryDy=0;" edge="1" parent="1" source="tWNSDuBQgDKEG3OZ49LE-224">
          <mxGeometry relative="1" as="geometry">
            <mxPoint x="440" y="602" as="targetPoint" />
          </mxGeometry>
        </mxCell>
        <mxCell id="tWNSDuBQgDKEG3OZ49LE-238" style="edgeStyle=orthogonalEdgeStyle;rounded=0;orthogonalLoop=1;jettySize=auto;html=1;exitX=1;exitY=0.75;exitDx=0;exitDy=0;entryX=0;entryY=0.75;entryDx=0;entryDy=0;" edge="1" parent="1" source="tWNSDuBQgDKEG3OZ49LE-224" target="tWNSDuBQgDKEG3OZ49LE-233">
          <mxGeometry relative="1" as="geometry" />
        </mxCell>
        <mxCell id="tWNSDuBQgDKEG3OZ49LE-224" value="A" style="rounded=0;whiteSpace=wrap;html=1;fillColor=#f8cecc;strokeColor=#b85450;fontSize=18;fontStyle=1" vertex="1" parent="1">
          <mxGeometry x="480" y="590" width="50" height="50" as="geometry" />
        </mxCell>
        <mxCell id="tWNSDuBQgDKEG3OZ49LE-228" style="edgeStyle=orthogonalEdgeStyle;rounded=0;orthogonalLoop=1;jettySize=auto;html=1;exitX=0.5;exitY=0;exitDx=0;exitDy=0;entryX=0.5;entryY=1;entryDx=0;entryDy=0;" edge="1" parent="1" source="tWNSDuBQgDKEG3OZ49LE-229" target="tWNSDuBQgDKEG3OZ49LE-224">
          <mxGeometry relative="1" as="geometry" />
        </mxCell>
        <mxCell id="tWNSDuBQgDKEG3OZ49LE-229" value="&lt;b&gt;first&lt;/b&gt;" style="text;html=1;strokeColor=none;fillColor=none;align=center;verticalAlign=middle;whiteSpace=wrap;rounded=0;fontSize=21;" vertex="1" parent="1">
          <mxGeometry x="485" y="670" width="40" height="20" as="geometry" />
        </mxCell>
        <mxCell id="tWNSDuBQgDKEG3OZ49LE-237" style="edgeStyle=orthogonalEdgeStyle;rounded=0;orthogonalLoop=1;jettySize=auto;html=1;exitX=0.5;exitY=1;exitDx=0;exitDy=0;entryX=0.5;entryY=0;entryDx=0;entryDy=0;" edge="1" parent="1" source="tWNSDuBQgDKEG3OZ49LE-231" target="tWNSDuBQgDKEG3OZ49LE-224">
          <mxGeometry relative="1" as="geometry" />
        </mxCell>
        <mxCell id="tWNSDuBQgDKEG3OZ49LE-231" value="&lt;b&gt;last&lt;/b&gt;" style="text;html=1;strokeColor=none;fillColor=none;align=center;verticalAlign=middle;whiteSpace=wrap;rounded=0;fontSize=21;" vertex="1" parent="1">
          <mxGeometry x="485" y="540" width="40" height="20" as="geometry" />
        </mxCell>
        <mxCell id="tWNSDuBQgDKEG3OZ49LE-232" value="null" style="rounded=0;whiteSpace=wrap;html=1;fillColor=#f5f5f5;strokeColor=#666666;fontSize=18;fontStyle=1;dashed=1;fontColor=#333333;" vertex="1" parent="1">
          <mxGeometry x="390" y="590" width="50" height="50" as="geometry" />
        </mxCell>
        <mxCell id="tWNSDuBQgDKEG3OZ49LE-233" value="null" style="rounded=0;whiteSpace=wrap;html=1;fillColor=#f5f5f5;strokeColor=#666666;fontSize=18;fontStyle=1;dashed=1;fontColor=#333333;" vertex="1" parent="1">
          <mxGeometry x="570" y="590" width="50" height="50" as="geometry" />
        </mxCell>
        <mxCell id="tWNSDuBQgDKEG3OZ49LE-239" style="edgeStyle=orthogonalEdgeStyle;rounded=0;orthogonalLoop=1;jettySize=auto;html=1;exitX=0;exitY=0.25;exitDx=0;exitDy=0;entryX=1;entryY=0.5;entryDx=0;entryDy=0;" edge="1" parent="1" source="tWNSDuBQgDKEG3OZ49LE-241">
          <mxGeometry relative="1" as="geometry">
            <mxPoint x="435" y="772" as="targetPoint" />
          </mxGeometry>
        </mxCell>
        <mxCell id="tWNSDuBQgDKEG3OZ49LE-240" style="edgeStyle=orthogonalEdgeStyle;rounded=0;orthogonalLoop=1;jettySize=auto;html=1;exitX=1;exitY=0.75;exitDx=0;exitDy=0;entryX=0;entryY=0.75;entryDx=0;entryDy=0;" edge="1" parent="1" source="tWNSDuBQgDKEG3OZ49LE-241" target="tWNSDuBQgDKEG3OZ49LE-247">
          <mxGeometry relative="1" as="geometry" />
        </mxCell>
        <mxCell id="tWNSDuBQgDKEG3OZ49LE-241" value="A" style="rounded=0;whiteSpace=wrap;html=1;fillColor=#f8cecc;strokeColor=#b85450;fontSize=18;fontStyle=1" vertex="1" parent="1">
          <mxGeometry x="475" y="760" width="50" height="50" as="geometry" />
        </mxCell>
        <mxCell id="tWNSDuBQgDKEG3OZ49LE-248" style="edgeStyle=orthogonalEdgeStyle;rounded=0;orthogonalLoop=1;jettySize=auto;html=1;exitX=0.5;exitY=0;exitDx=0;exitDy=0;entryX=0.5;entryY=1;entryDx=0;entryDy=0;" edge="1" parent="1" source="tWNSDuBQgDKEG3OZ49LE-243" target="tWNSDuBQgDKEG3OZ49LE-247">
          <mxGeometry relative="1" as="geometry" />
        </mxCell>
        <mxCell id="tWNSDuBQgDKEG3OZ49LE-243" value="&lt;b&gt;first&lt;/b&gt;" style="text;html=1;strokeColor=none;fillColor=none;align=center;verticalAlign=middle;whiteSpace=wrap;rounded=0;fontSize=21;" vertex="1" parent="1">
          <mxGeometry x="570" y="840" width="40" height="20" as="geometry" />
        </mxCell>
        <mxCell id="tWNSDuBQgDKEG3OZ49LE-244" style="edgeStyle=orthogonalEdgeStyle;rounded=0;orthogonalLoop=1;jettySize=auto;html=1;exitX=0.5;exitY=1;exitDx=0;exitDy=0;entryX=0.5;entryY=0;entryDx=0;entryDy=0;" edge="1" parent="1" source="tWNSDuBQgDKEG3OZ49LE-245" target="tWNSDuBQgDKEG3OZ49LE-241">
          <mxGeometry relative="1" as="geometry" />
        </mxCell>
        <mxCell id="tWNSDuBQgDKEG3OZ49LE-245" value="&lt;b&gt;last&lt;/b&gt;" style="text;html=1;strokeColor=none;fillColor=none;align=center;verticalAlign=middle;whiteSpace=wrap;rounded=0;fontSize=21;" vertex="1" parent="1">
          <mxGeometry x="480" y="710" width="40" height="20" as="geometry" />
        </mxCell>
        <mxCell id="tWNSDuBQgDKEG3OZ49LE-246" value="null" style="rounded=0;whiteSpace=wrap;html=1;fillColor=#f5f5f5;strokeColor=#666666;fontSize=18;fontStyle=1;dashed=1;fontColor=#333333;" vertex="1" parent="1">
          <mxGeometry x="385" y="760" width="50" height="50" as="geometry" />
        </mxCell>
        <mxCell id="tWNSDuBQgDKEG3OZ49LE-247" value="null" style="rounded=0;whiteSpace=wrap;html=1;fillColor=#f5f5f5;strokeColor=#666666;fontSize=18;fontStyle=1;dashed=1;fontColor=#333333;" vertex="1" parent="1">
          <mxGeometry x="565" y="760" width="50" height="50" as="geometry" />
        </mxCell>
        <mxCell id="tWNSDuBQgDKEG3OZ49LE-250" style="edgeStyle=orthogonalEdgeStyle;rounded=0;orthogonalLoop=1;jettySize=auto;html=1;exitX=0;exitY=0.25;exitDx=0;exitDy=0;entryX=1;entryY=0.5;entryDx=0;entryDy=0;" edge="1" parent="1" source="tWNSDuBQgDKEG3OZ49LE-252">
          <mxGeometry relative="1" as="geometry">
            <mxPoint x="435" y="932" as="targetPoint" />
          </mxGeometry>
        </mxCell>
        <mxCell id="tWNSDuBQgDKEG3OZ49LE-251" style="edgeStyle=orthogonalEdgeStyle;rounded=0;orthogonalLoop=1;jettySize=auto;html=1;exitX=1;exitY=0.75;exitDx=0;exitDy=0;entryX=0;entryY=0.75;entryDx=0;entryDy=0;" edge="1" parent="1" source="tWNSDuBQgDKEG3OZ49LE-252" target="tWNSDuBQgDKEG3OZ49LE-258">
          <mxGeometry relative="1" as="geometry" />
        </mxCell>
        <mxCell id="tWNSDuBQgDKEG3OZ49LE-252" value="A" style="rounded=0;whiteSpace=wrap;html=1;fillColor=#f8cecc;strokeColor=#b85450;fontSize=18;fontStyle=1" vertex="1" parent="1">
          <mxGeometry x="475" y="920" width="50" height="50" as="geometry" />
        </mxCell>
        <mxCell id="tWNSDuBQgDKEG3OZ49LE-253" style="edgeStyle=orthogonalEdgeStyle;rounded=0;orthogonalLoop=1;jettySize=auto;html=1;exitX=0.5;exitY=0;exitDx=0;exitDy=0;entryX=0.5;entryY=1;entryDx=0;entryDy=0;" edge="1" parent="1" source="tWNSDuBQgDKEG3OZ49LE-254" target="tWNSDuBQgDKEG3OZ49LE-258">
          <mxGeometry relative="1" as="geometry" />
        </mxCell>
        <mxCell id="tWNSDuBQgDKEG3OZ49LE-254" value="&lt;b&gt;first&lt;/b&gt;" style="text;html=1;strokeColor=none;fillColor=none;align=center;verticalAlign=middle;whiteSpace=wrap;rounded=0;fontSize=21;" vertex="1" parent="1">
          <mxGeometry x="570" y="1000" width="40" height="20" as="geometry" />
        </mxCell>
        <mxCell id="tWNSDuBQgDKEG3OZ49LE-259" style="edgeStyle=orthogonalEdgeStyle;rounded=0;orthogonalLoop=1;jettySize=auto;html=1;exitX=0.5;exitY=1;exitDx=0;exitDy=0;entryX=0.5;entryY=0;entryDx=0;entryDy=0;" edge="1" parent="1" source="tWNSDuBQgDKEG3OZ49LE-256" target="tWNSDuBQgDKEG3OZ49LE-257">
          <mxGeometry relative="1" as="geometry" />
        </mxCell>
        <mxCell id="tWNSDuBQgDKEG3OZ49LE-256" value="&lt;b&gt;last&lt;/b&gt;" style="text;html=1;strokeColor=none;fillColor=none;align=center;verticalAlign=middle;whiteSpace=wrap;rounded=0;fontSize=21;" vertex="1" parent="1">
          <mxGeometry x="390" y="870" width="40" height="20" as="geometry" />
        </mxCell>
        <mxCell id="tWNSDuBQgDKEG3OZ49LE-257" value="null" style="rounded=0;whiteSpace=wrap;html=1;fillColor=#f5f5f5;strokeColor=#666666;fontSize=18;fontStyle=1;dashed=1;fontColor=#333333;" vertex="1" parent="1">
          <mxGeometry x="385" y="920" width="50" height="50" as="geometry" />
        </mxCell>
        <mxCell id="tWNSDuBQgDKEG3OZ49LE-258" value="null" style="rounded=0;whiteSpace=wrap;html=1;fillColor=#f5f5f5;strokeColor=#666666;fontSize=18;fontStyle=1;dashed=1;fontColor=#333333;" vertex="1" parent="1">
          <mxGeometry x="565" y="920" width="50" height="50" as="geometry" />
        </mxCell>
        <mxCell id="tWNSDuBQgDKEG3OZ49LE-263" style="edgeStyle=orthogonalEdgeStyle;rounded=0;orthogonalLoop=1;jettySize=auto;html=1;exitX=0.5;exitY=0;exitDx=0;exitDy=0;entryX=0.5;entryY=1;entryDx=0;entryDy=0;" edge="1" parent="1" source="tWNSDuBQgDKEG3OZ49LE-264" target="tWNSDuBQgDKEG3OZ49LE-268">
          <mxGeometry relative="1" as="geometry" />
        </mxCell>
        <mxCell id="tWNSDuBQgDKEG3OZ49LE-264" value="&lt;b&gt;first&lt;/b&gt;" style="text;html=1;strokeColor=none;fillColor=none;align=center;verticalAlign=middle;whiteSpace=wrap;rounded=0;fontSize=21;" vertex="1" parent="1">
          <mxGeometry x="530" y="1120" width="40" height="20" as="geometry" />
        </mxCell>
        <mxCell id="tWNSDuBQgDKEG3OZ49LE-265" style="edgeStyle=orthogonalEdgeStyle;rounded=0;orthogonalLoop=1;jettySize=auto;html=1;exitX=0.5;exitY=1;exitDx=0;exitDy=0;entryX=0.5;entryY=0;entryDx=0;entryDy=0;" edge="1" parent="1" source="tWNSDuBQgDKEG3OZ49LE-266" target="tWNSDuBQgDKEG3OZ49LE-267">
          <mxGeometry relative="1" as="geometry" />
        </mxCell>
        <mxCell id="tWNSDuBQgDKEG3OZ49LE-266" value="&lt;b&gt;last&lt;/b&gt;" style="text;html=1;strokeColor=none;fillColor=none;align=center;verticalAlign=middle;whiteSpace=wrap;rounded=0;fontSize=21;" vertex="1" parent="1">
          <mxGeometry x="430" y="1040" width="40" height="20" as="geometry" />
        </mxCell>
        <mxCell id="tWNSDuBQgDKEG3OZ49LE-267" value="null" style="rounded=0;whiteSpace=wrap;html=1;fillColor=#f5f5f5;strokeColor=#666666;fontSize=18;fontStyle=1;dashed=1;fontColor=#333333;" vertex="1" parent="1">
          <mxGeometry x="425" y="1090" width="50" height="50" as="geometry" />
        </mxCell>
        <mxCell id="tWNSDuBQgDKEG3OZ49LE-268" value="null" style="rounded=0;whiteSpace=wrap;html=1;fillColor=#f5f5f5;strokeColor=#666666;fontSize=18;fontStyle=1;dashed=1;fontColor=#333333;" vertex="1" parent="1">
          <mxGeometry x="525" y="1040" width="50" height="50" as="geometry" />
        </mxCell>
        <mxCell id="tWNSDuBQgDKEG3OZ49LE-269" value="" style="endArrow=none;html=1;rounded=0;strokeWidth=2;" edge="1" parent="1">
          <mxGeometry width="50" height="50" relative="1" as="geometry">
            <mxPoint x="225" y="530" as="sourcePoint" />
            <mxPoint x="1290" y="530" as="targetPoint" />
          </mxGeometry>
        </mxCell>
        <mxCell id="tWNSDuBQgDKEG3OZ49LE-271" value="" style="endArrow=none;html=1;rounded=0;strokeWidth=2;" edge="1" parent="1">
          <mxGeometry width="50" height="50" relative="1" as="geometry">
            <mxPoint x="760" y="1160" as="sourcePoint" />
            <mxPoint x="760" y="-20" as="targetPoint" />
          </mxGeometry>
        </mxCell>
        <mxCell id="tWNSDuBQgDKEG3OZ49LE-273" value="中间的节点" style="text;html=1;strokeColor=none;fillColor=none;align=center;verticalAlign=middle;whiteSpace=wrap;rounded=0;fontStyle=1;fontSize=19;" vertex="1" parent="1">
          <mxGeometry x="172.5" y="225" width="100" height="30" as="geometry" />
        </mxCell>
        <mxCell id="tWNSDuBQgDKEG3OZ49LE-274" value="头节点" style="text;html=1;strokeColor=none;fillColor=none;align=center;verticalAlign=middle;whiteSpace=wrap;rounded=0;fontStyle=1;fontSize=19;" vertex="1" parent="1">
          <mxGeometry x="1270" y="225" width="100" height="30" as="geometry" />
        </mxCell>
        <mxCell id="tWNSDuBQgDKEG3OZ49LE-275" value="尾节点" style="text;html=1;strokeColor=none;fillColor=none;align=center;verticalAlign=middle;whiteSpace=wrap;rounded=0;fontStyle=1;fontSize=19;" vertex="1" parent="1">
          <mxGeometry x="1270" y="835" width="100" height="30" as="geometry" />
        </mxCell>
        <mxCell id="tWNSDuBQgDKEG3OZ49LE-276" value="只有一个节点" style="text;html=1;strokeColor=none;fillColor=none;align=center;verticalAlign=middle;whiteSpace=wrap;rounded=0;fontStyle=1;fontSize=19;" vertex="1" parent="1">
          <mxGeometry x="160" y="835" width="125" height="30" as="geometry" />
        </mxCell>
      </root>
    </mxGraphModel>
  </diagram>
</mxfile>
